{
  "accessors": [
    {
      "bufferView": 2,
      "componentType": 5126,
      "count": 65532,
      "max": [
        2.9647128582000732,
        12.957839965820312,
        14.117166519165039
      ],
      "min": [
        -2.3446462154388428,
        3.4601545333862305,
        -1.1112549304962158
      ],
      "type": "VEC3"
    },
    {
      "bufferView": 2,
      "byteOffset": 786384,
      "componentType": 5126,
      "count": 65532,
      "max": [
        0.99999153614044189,
        0.99992889165878296,
        0.99916619062423706
      ],
      "min": [
        -0.99985849857330322,
        -0.9998629093170166,
        -0.93730705976486206
      ],
      "type": "VEC3"
    },
    {
      "bufferView": 1,
      "componentType": 5126,
      "count": 65532,
      "max": [
        0.98128998279571533,
        0.99804002046585083
      ],
      "min": [
        0.0020800000056624413,
        0.0019499999471008778
      ],
      "type": "VEC2"
    },
    {
      "bufferView": 0,
      "componentType": 5125,
      "count": 306159,
      "max": [
        65531
      ],
      "min": [
        0
      ],
      "type": "SCALAR"
    },
    {
      "bufferView": 2,
      "byteOffset": 1572768,
      "componentType": 5126,
      "count": 65532,
      "max": [
        3.7214229106903076,
        13.212447166442871,
        14.238498687744141
      ],
      "min": [
        -2.354576587677002,
        3.4722754955291748,
        -0.9062117338180542
      ],
      "type": "VEC3"
    },
    {
      "bufferView": 2,
      "byteOffset": 2359152,
      "componentType": 5126,
      "count": 65532,
      "max": [
        0.99999529123306274,
        0.99998587369918823,
        0.99983686208724976
      ],
      "min": [
        -0.9999992847442627,
        -0.99989008903503418,
        -0.98677444458007812
      ],
      "type": "VEC3"
    },
    {
      "bufferView": 1,
      "byteOffset": 524256,
      "componentType": 5126,
      "count": 65532,
      "max": [
        0.97548997402191162,
        0.9856799840927124
      ],
      "min": [
        0.0076399999670684338,
        0.024380000308156013
      ],
      "type": "VEC2"
    },
    {
      "bufferView": 0,
      "byteOffset": 1224636,
      "componentType": 5125,
      "count": 308655,
      "max": [
        65531
      ],
      "min": [
        0
      ],
      "type": "SCALAR"
    },
    {
      "bufferView": 2,
      "byteOffset": 3145536,
      "componentType": 5126,
      "count": 65532,
      "max": [
        3.638371467590332,
        13.417621612548828,
        14.149503707885742
      ],
      "min": [
        -2.3409290313720703,
        3.4400711059570312,
        -1.2955456972122192
      ],
      "type": "VEC3"
    },
    {
      "bufferView": 2,
      "byteOffset": 3931920,
      "componentType": 5126,
      "count": 65532,
      "max": [
        0.99999827146530151,
        0.99989789724349976,
        0.99555879831314087
      ],
      "min": [
        -0.9999849796295166,
        -0.99982690811157227,
        -0.9988483190536499
      ],
      "type": "VEC3"
    },
    {
      "bufferView": 1,
      "byteOffset": 1048512,
      "componentType": 5126,
      "count": 65532,
      "max": [
        0.94258999824523926,
        0.98672997951507568
      ],
      "min": [
        0.0028200000524520874,
        0.026370000094175339
      ],
      "type": "VEC2"
    },
    {
      "bufferView": 0,
      "byteOffset": 2459256,
      "componentType": 5125,
      "count": 309267,
      "max": [
        65531
      ],
      "min": [
        0
      ],
      "type": "SCALAR"
    },
    {
      "bufferView": 2,
      "byteOffset": 4718304,
      "componentType": 5126,
      "count": 65532,
      "max": [
        3.7219936847686768,
        13.39100170135498,
        14.029740333557129
      ],
      "min": [
        -2.3435468673706055,
        3.437993049621582,
        -1.2893199920654297
      ],
      "type": "VEC3"
    },
    {
      "bufferView": 2,
      "byteOffset": 5504688,
      "componentType": 5126,
      "count": 65532,
      "max": [
        0.99999827146530151,
        0.99996054172515869,
        0.99916619062423706
      ],
      "min": [
        -0.99998044967651367,
        -0.9999963641166687,
        -0.97212731838226318
      ],
      "type": "VEC3"
    },
    {
      "bufferView": 1,
      "byteOffset": 1572768,
      "componentType": 5126,
      "count": 65532,
      "max": [
        0.98532998561859131,
        0.98581999540328979
      ],
      "min": [
        0.010209999978542328,
        0.014019999653100967
      ],
      "type": "VEC2"
    },
    {
      "bufferView": 0,
      "byteOffset": 3696324,
      "componentType": 5125,
      "count": 306588,
      "max": [
        65531
      ],
      "min": [
        0
      ],
      "type": "SCALAR"
    },
    {
      "bufferView": 2,
      "byteOffset": 6291072,
      "componentType": 5126,
      "count": 65532,
      "max": [
        3.7088415622711182,
        13.412696838378906,
        14.246454238891602
      ],
      "min": [
        -2.354576587677002,
        3.4508745670318604,
        -1.2931708097457886
      ],
      "type": "VEC3"
    },
    {
      "bufferView": 2,
      "byteOffset": 7077456,
      "componentType": 5126,
      "count": 65532,
      "max": [
        0.99999886751174927,
        0.99995923042297363,
        0.99991452693939209
      ],
      "min": [
        -0.9999992847442627,
        -0.99997615814208984,
        -0.9988483190536499
      ],
      "type": "VEC3"
    },
    {
      "bufferView": 1,
      "byteOffset": 2097024,
      "componentType": 5126,
      "count": 65532,
      "max": [
        0.98009997606277466,
        0.99396997690200806
      ],
      "min": [
        0.0019499999471008778,
        0.014240000396966934
      ],
      "type": "VEC2"
    },
    {
      "bufferView": 0,
      "byteOffset": 4922676,
      "componentType": 5125,
      "count": 239613,
      "max": [
        65531
      ],
      "min": [
        0
      ],
      "type": "SCALAR"
    },
    {
      "bufferView": 2,
      "byteOffset": 7863840,
      "componentType": 5126,
      "count": 15386,
      "max": [
        3.7232968807220459,
        13.418520927429199,
        14.203600883483887
      ],
      "min": [
        -2.350447416305542,
        3.4622101783752441,
        -1.2934536933898926
      ],
      "type": "VEC3"
    },
    {
      "bufferView": 2,
      "byteOffset": 8048472,
      "componentType": 5126,
      "count": 15386,
      "max": [
        0.99984419345855713,
        0.99994802474975586,
        0.99597328901290894
      ],
      "min": [
        -0.9999849796295166,
        -0.99912387132644653,
        -0.998634934425354
      ],
      "type": "VEC3"
    },
    {
      "bufferView": 1,
      "byteOffset": 2621280,
      "componentType": 5126,
      "count": 15386,
      "max": [
        0.97732001543045044,
        0.99150997400283813
      ],
      "min": [
        0.0036899999249726534,
        0.018479999154806137
      ],
      "type": "VEC2"
    },
    {
      "bufferView": 0,
      "byteOffset": 5881128,
      "componentType": 5125,
      "count": 26997,
      "max": [
        15385
      ],
      "min": [
        0
      ],
      "type": "SCALAR"
    }
  ],
  "asset": {
    "extras": {
      "author": "Taylor (https://sketchfab.com/thoulihan)",
      "license": "CC-BY-4.0 (http://creativecommons.org/licenses/by/4.0/)",
      "source": "https://sketchfab.com/3d-models/palestinian-dress-245fc60a2b8f414cabe1053ec73cb779",
      "title": "Palestinian Dress"
    },
    "generator": "Sketchfab-10.15.0",
    "version": "2.0"
  },
  "bufferViews": [
    {
      "buffer": 0,
      "byteLength": 5989116,
      "byteOffset": 0,
      "name": "floatBufferViews",
      "target": 34963
    },
    {
      "buffer": 0,
      "byteLength": 2744368,
      "byteOffset": 5989116,
      "byteStride": 8,
      "name": "floatBufferViews",
      "target": 34962
    },
    {
      "buffer": 0,
      "byteLength": 8233104,
      "byteOffset": 8733484,
      "byteStride": 12,
      "name": "floatBufferViews",
      "target": 34962
    }
  ],
  "buffers": [
    {
      "byteLength": 16966588,
      "uri": "scene.bin"
    }
  ],
  "images": [
    {
      "uri": "textures/defaultMat_baseColor.jpeg"
    }
  ],
  "materials": [
    {
      "doubleSided": true,
      "name": "defaultMat",
      "pbrMetallicRoughness": {
        "baseColorFactor": [
          1,
          1,
          1,
          1
        ],
        "baseColorTexture": {
          "index": 0,
          "texCoord": 0
        },
        "metallicFactor": 0,
        "roughnessFactor": 0.79821273309863872
      }
    }
  ],
  "meshes": [
    {
      "primitives": [
        {
          "attributes": {
            "NORMAL": 1,
            "POSITION": 0,
            "TEXCOORD_0": 2
          },
          "indices": 3,
          "material": 0,
          "mode": 4
        }
      ]
    },
    {
      "primitives": [
        {
          "attributes": {
            "NORMAL": 5,
            "POSITION": 4,
            "TEXCOORD_0": 6
          },
          "indices": 7,
          "material": 0,
          "mode": 4
        }
      ]
    },
    {
      "primitives": [
        {
          "attributes": {
            "NORMAL": 9,
            "POSITION": 8,
            "TEXCOORD_0": 10
          },
          "indices": 11,
          "material": 0,
          "mode": 4
        }
      ]
    },
    {
      "primitives": [
        {
          "attributes": {
            "NORMAL": 13,
            "POSITION": 12,
            "TEXCOORD_0": 14
          },
          "indices": 15,
          "material": 0,
          "mode": 4
        }
      ]
    },
    {
      "primitives": [
        {
          "attributes": {
            "NORMAL": 17,
            "POSITION": 16,
            "TEXCOORD_0": 18
          },
          "indices": 19,
          "material": 0,
          "mode": 4
        }
      ]
    },
    {
      "primitives": [
        {
          "attributes": {
            "NORMAL": 21,
            "POSITION": 20,
            "TEXCOORD_0": 22
          },
          "indices": 23,
          "material": 0,
          "mode": 4
        }
      ]
    }
  ],
  "nodes": [
    {
      "children": [
        1
      ],
      "name": "RootNode (gltf orientation matrix)",
      "rotation": [
        -0.70710678118654746,
        -0,
        -0,
        0.70710678118654757
      ]
    },
    {
      "children": [
        2
      ],
      "matrix": [
        0.59289735555648804,
        -0.80373561382293701,
        -0.049817785620689392,
        0,
        0.74497717618942261,
        0.5709378719329834,
        -0.34502023458480835,
        0,
        0.30574789643287659,
        0.16744846105575562,
        0.93727225065231323,
        0,
        -7.980109691619873,
        3.0819871425628662,
        3.348203182220459,
        1
      ],
      "name": "RootNode (model correction matrix)"
    },
    {
      "children": [
        3,
        4,
        5,
        6,
        7,
        8
      ],
      "name": "PalestinianDress-500k_cm.OBJ.cleaner.materialmerger.gles"
    },
    {
      "mesh": 0,
      "name": ""
    },
    {
      "mesh": 1,
      "name": ""
    },
    {
      "mesh": 2,
      "name": ""
    },
    {
      "mesh": 3,
      "name": ""
    },
    {
      "mesh": 4,
      "name": ""
    },
    {
      "mesh": 5,
      "name": ""
    }
  ],
  "samplers": [
    {
      "magFilter": 9729,
      "minFilter": 9987,
      "wrapS": 10497,
      "wrapT": 10497
    }
  ],
  "scene": 0,
  "scenes": [
    {
      "name": "OSG_Scene",
      "nodes": [
        0
      ]
    }
  ],
  "textures": [
    {
      "sampler": 0,
      "source": 0
    }
  ]
}

